<?xml version="1.0" encoding="utf-8"?>
<!-- Generator: Adobe Illustrator 18.1.1, SVG Export Plug-In . SVG Version: 6.00 Build 0)  -->
<svg version="1.1" id="Layer_1" xmlns="http://www.w3.org/2000/svg" xmlns:xlink="http://www.w3.org/1999/xlink" x="0px" y="0px"
	 viewBox="0 0 1515.6 1515.6" enable-background="new 0 0 1515.6 1515.6" xml:space="preserve">
<rect x="183.5" y="435.5" fill="none" width="1139.3" height="614.3"/>
<text transform="matrix(1 0 0 1 533.5652 540.6552)" fill="#808285" font-family="'Kaleko105W00-Heavy'" font-size="100">Hello!  </text>
<text transform="matrix(1 0 0 1 254.9099 708.829)" fill="#808285" font-family="'Kaleko105W00-Heavy'" font-size="100">I am </text>
<text transform="matrix(1 0 0 1 621.3909 708.829)" fill="#F3EA00" font-family="'Kaleko105W00-Heavy'" font-size="140.1455" letter-spacing="-17">T</text>
<text transform="matrix(1 0 0 1 691.9304 708.829)" fill="#F3EA00" font-family="'Kaleko105W00-Heavy'" font-size="140.1455" letter-spacing="-3">omo</text>
<text transform="matrix(1 0 0 1 1018.7033 708.829)" fill="#F3EA00" font-family="'Kaleko105W00-Heavy'" font-size="140.1455" letter-spacing="-8">k</text>
<text transform="matrix(1 0 0 1 1107.4622 708.829)" fill="#F3EA00" font-family="'Kaleko105W00-Heavy'" font-size="140.1455">o</text>
<text transform="matrix(1 0 0 1 1207.4329 708.829)" fill="#808285" font-family="'Kaleko105W00-Heavy'" font-size="140.1455">.</text>
<text transform="matrix(1 0 0 1 185.3044 877.0028)" fill="#808285" font-family="'Kaleko105W00-Heavy'" font-size="140.1455">I am a </text>
<text transform="matrix(1 0 0 1 691.697 877.0028)" fill="#F3EA00" font-family="'Kaleko105W00-Heavy'" font-size="140.1455">Graphic  </text>
<text transform="matrix(1 0 0 1 374.5017 1045.1776)" fill="#F3EA00" font-family="'Kaleko105W00-Heavy'" font-size="140.1455">Designer</text>
<text transform="matrix(1 0 0 1 1087.8411 1045.1776)" fill="#808285" font-family="'Kaleko105W00-Heavy'" font-size="140.1455">.</text>
</svg>
