<?xml version="1.0" encoding="utf-8"?>
<!-- Generator: Adobe Illustrator 18.1.1, SVG Export Plug-In . SVG Version: 6.00 Build 0)  -->
<svg version="1.1" id="Layer_1" xmlns="http://www.w3.org/2000/svg" xmlns:xlink="http://www.w3.org/1999/xlink" x="0px" y="0px"
	 viewBox="-266.8 231.5 1520.8 835.2" enable-background="new -266.8 231.5 1520.8 835.2" xml:space="preserve">
<rect x="-105.3" y="315.9" fill="none" width="1222.5" height="659.1"/>
<text transform="matrix(1 0 0 1 270.3076 428.7004)" fill="#808285" font-family="'Kaleko105W00-Heavy'" font-size="150.3777">Hello!  </text>
<text transform="matrix(1 0 0 1 -28.6924 609.1525)" fill="#808285" font-family="'Kaleko105W00-Heavy'" font-size="150.3777">I am </text>
<text transform="matrix(1 0 0 1 364.5454 609.1525)" fill="#F3EA00" font-family="'Kaleko105W00-Heavy'" font-size="150.3777" letter-spacing="-19">T</text>
<text transform="matrix(1 0 0 1 440.2354 609.1525)" fill="#F3EA00" font-family="'Kaleko105W00-Heavy'" font-size="150.3777" letter-spacing="-4">omo</text>
<text transform="matrix(1 0 0 1 790.8661 609.1525)" fill="#F3EA00" font-family="'Kaleko105W00-Heavy'" font-size="150.3777" letter-spacing="-9">k</text>
<text transform="matrix(1 0 0 1 886.1055 609.1525)" fill="#F3EA00" font-family="'Kaleko105W00-Heavy'" font-size="150.3777">o</text>
<text transform="matrix(1 0 0 1 993.375 609.1525)" fill="#808285" font-family="'Kaleko105W00-Heavy'" font-size="150.3777">.</text>
<text transform="matrix(1 0 0 1 -103.3799 789.6052)" fill="#808285" font-family="'Kaleko105W00-Heavy'" font-size="150.3777">I am a </text>
<text transform="matrix(1 0 0 1 439.9848 789.6052)" fill="#F3EA00" font-family="'Kaleko105W00-Heavy'" font-size="150.3777">Graphic  </text>
<text transform="matrix(1 0 0 1 99.6309 970.0583)" fill="#F3EA00" font-family="'Kaleko105W00-Heavy'" font-size="150.3777">Designer</text>
<text transform="matrix(1 0 0 1 865.0518 970.0583)" fill="#808285" font-family="'Kaleko105W00-Heavy'" font-size="150.3777">.</text>
</svg>
